<svg xmlns="http://www.w3.org/2000/svg" version="1.1" xmlns:xlink="http://www.w3.org/1999/xlink" xmlns:svgjs="http://svgjs.dev/svgjs" width="1500" height="526" viewBox="0 0 1500 526"><g transform="matrix(1,0,0,1,-0.9090909090909918,0.42426182324356887)"><svg viewBox="0 0 396 139" data-background-color="#040046" preserveAspectRatio="xMidYMid meet" height="526" width="1500" xmlns="http://www.w3.org/2000/svg" xmlns:xlink="http://www.w3.org/1999/xlink"><g id="tight-bounds" transform="matrix(1,0,0,1,0.2400000000000091,-0.11211481640847865)"><svg viewBox="0 0 395.52 139.22422963281693" height="139.22422963281693" width="395.52"><g><svg viewBox="0 0 631.3045919918483 222.2211151995471" height="139.22422963281693" width="395.52"><g><svg viewBox="0 0 395.52 222.2211151995471" height="222.2211151995471" width="395.52"><g id="textblocktransform"><svg viewBox="0 0 395.52 222.2211151995471" height="222.2211151995471" width="395.52" id="textblock"><g><svg viewBox="0 0 395.52 222.2211151995471" height="222.2211151995471" width="395.52"><g transform="matrix(1,0,0,1,0,0)"><svg width="395.52" viewBox="4.08 -38.35 86.24 48.46" height="222.2211151995471" data-palette-color="url(#e1144a73-d275-428a-b459-1eb86ba9a73f)"></svg></g></svg></g></svg></g></svg></g><g transform="matrix(1,0,0,1,447.98107199184824,19.491649907073963)"><svg viewBox="0 0 183.32352 183.2378153853992" height="183.2378153853992" width="183.32352"><g><svg xmlns="http://www.w3.org/2000/svg" xmlns:xlink="http://www.w3.org/1999/xlink" version="1.1" x="0" y="0" viewBox="0.7607695154586737 0.7749999999999999 30.43923048454133 30.424999999999997" enable-background="new 0 0 32 32" xml:space="preserve" height="183.2378153853992" width="183.32352" class="icon-icon-0" data-fill-palette-color="accent" id="icon-0"></svg></g></svg></g></svg></g><defs></defs><mask id="8f54bd4d-81f2-40ee-ac46-b5f7f7cf1047"><g id="SvgjsG2517"><svg viewBox="0 0 395.52 139.22422963281693" height="139.22422963281693" width="395.52"><g><svg viewBox="0 0 631.3045919918483 222.2211151995471" height="139.22422963281693" width="395.52"><g><svg viewBox="0 0 395.52 222.2211151995471" height="222.2211151995471" width="395.52"><g id="SvgjsG2516"><svg viewBox="0 0 395.52 222.2211151995471" height="222.2211151995471" width="395.52" id="SvgjsSvg2515"><g><svg viewBox="0 0 395.52 222.2211151995471" height="222.2211151995471" width="395.52"><g transform="matrix(1,0,0,1,0,0)"><svg width="395.52" viewBox="4.08 -38.35 86.24 48.46" height="222.2211151995471" data-palette-color="url(#e1144a73-d275-428a-b459-1eb86ba9a73f)"><path d="M8.52 0L4.08 0 4.08-37.6 8.52-38.09 8.52-18.68 8.37-13.48 20.43-26.42 25.46-26.42 25.46-25.85 14.62-14.43 26.25-0.61 26.25 0 21.48 0 11.47-12.3 8.52-9.77 8.52 0ZM35.72 0L31.27 0 31.27-26.42 35.72-26.42 35.72 0ZM33.49-32.47L33.49-32.47Q32-32.47 31.2-33.25 30.39-34.03 30.39-35.45L30.39-35.45Q30.39-36.82 31.2-37.59 32-38.35 33.49-38.35L33.49-38.35Q34.98-38.35 35.79-37.59 36.59-36.82 36.59-35.45L36.59-35.45Q36.59-34.03 35.79-33.25 34.98-32.47 33.49-32.47ZM66.11-26.42L51.51 10.11 47.7 9.13 51.61-1.07 40.62-26.42 45.26-26.42 53.8-5.93 61.84-26.42 66.11-26.42ZM77.95 0.49L77.95 0.49Q74.16 0.49 71.79-1.42 69.43-3.32 69.43-7.18L69.43-7.18Q69.43-8.94 70.05-10.3 70.67-11.67 71.94-12.61 73.21-13.55 75.21-14.04 77.21-14.53 79.95-14.53L79.95-14.53 85.91-14.53 85.91-17.58Q85.91-20.78 84.47-22.2 83.02-23.63 80.12-23.63L80.12-23.63Q78.24-23.63 75.88-23.03 73.53-22.44 71.65-21.14L71.65-21.14 70.35-24.51Q71.7-25.37 73.32-25.92 74.94-26.46 76.71-26.73 78.48-27 80.24-27L80.24-27Q83.22-27 85.49-26.05 87.76-25.1 89.04-22.95 90.32-20.8 90.32-17.21L90.32-17.21 90.32 0 86.61 0 86.3-3.25Q85.25-2 84-1.17 82.76-0.34 81.25 0.07 79.75 0.49 77.95 0.49ZM78.63-2.66L78.63-2.66Q80.97-2.66 82.83-3.64 84.68-4.61 85.91-6.18L85.91-6.18 85.91-11.72 80.75-11.72Q78.07-11.72 76.51-11.21 74.94-10.69 74.3-9.68 73.65-8.67 73.65-7.13L73.65-7.13Q73.65-4.64 75.1-3.65 76.56-2.66 78.63-2.66Z" opacity="1" transform="matrix(1,0,0,1,0,0)" fill="white" class="wordmark-text-0" id="SvgjsPath2514"></path></svg></g></svg></g></svg></g></svg></g><g transform="matrix(1,0,0,1,447.98107199184824,19.491649907073963)"><svg viewBox="0 0 183.32352 183.2378153853992" height="183.2378153853992" width="183.32352"><g><svg xmlns="http://www.w3.org/2000/svg" xmlns:xlink="http://www.w3.org/1999/xlink" version="1.1" x="0" y="0" viewBox="0.7607695154586737 0.7749999999999999 30.43923048454133 30.424999999999997" enable-background="new 0 0 32 32" xml:space="preserve" height="183.2378153853992" width="183.32352" class="icon-icon-0" data-fill-palette-color="accent" id="SvgjsSvg2513"><g fill="black"><g fill="black"><path fill="black" d="M1.5 31.2c-0.2 0-0.4-0.1-0.5-0.2-0.2-0.2-0.3-0.4-0.2-0.7l3.7-19.1c0.1-0.3 0.3-0.6 0.6-0.6l9.6-1.3c0.2 0 0.5 0 0.6 0.2l7.2 7.2c0.2 0.2 0.2 0.4 0.2 0.6l-1.3 9.6c0 0.3-0.3 0.6-0.6 0.6L1.6 31.2H1.5zM5.8 12.1L2.4 29.6l17.5-3.4 1.2-8.7-6.7-6.7L5.8 12.1z"></path></g><g fill="black"><rect x="5.2" y="19.8" transform="matrix(-0.7071 -0.7071 0.7071 -0.7071 -8.3465 48.7211)" fill="black" width="1.5" height="12.6"></rect></g><g fill="black"><path fill="black" d="M12 23.1c-0.8 0-1.6-0.3-2.2-0.9-0.6-0.6-0.9-1.3-0.9-2.2 0-0.8 0.3-1.6 0.9-2.2 1.2-1.2 3.2-1.2 4.3 0 1.2 1.2 1.2 3.1 0 4.3C13.6 22.8 12.8 23.1 12 23.1zM12 18.4c-0.4 0-0.8 0.2-1.1 0.5s-0.5 0.7-0.5 1.1 0.2 0.8 0.5 1.1c0.6 0.6 1.6 0.6 2.2 0 0.6-0.6 0.6-1.6 0-2.2C12.8 18.6 12.4 18.4 12 18.4z"></path></g><g fill="black"><path fill="black" d="M23.8 18.7c-0.9 0-1.8-0.4-2.4-1l-7.1-7.1c-1.3-1.3-1.3-3.5 0-4.8L19.1 1c0.3-0.3 0.8-0.3 1.1 0L31 11.8c0.1 0.1 0.2 0.3 0.2 0.5s-0.1 0.4-0.2 0.5l-4.9 4.9C25.5 18.4 24.7 18.7 23.8 18.7zM19.7 2.6l-4.3 4.3c-0.7 0.7-0.7 2 0 2.7l7.1 7.1c0.7 0.7 2 0.7 2.7 0l4.3-4.3L19.7 2.6z"></path></g></g></svg></g></svg></g></svg></g><defs><mask></mask></defs></svg><rect width="395.52" height="139.22422963281693" fill="black" stroke="none" visibility="hidden"></rect></g></mask><linearGradient x1="0" x2="1" y1="0.578" y2="0.595" id="e1144a73-d275-428a-b459-1eb86ba9a73f"><stop stop-color="#6ee2f5" offset="0"></stop><stop stop-color="#6454f0" offset="1"></stop></linearGradient><rect width="395.52" height="139.22422963281693" fill="url(#e1144a73-d275-428a-b459-1eb86ba9a73f)" mask="url(#8f54bd4d-81f2-40ee-ac46-b5f7f7cf1047)" data-fill-palette-color="primary"></rect><mask id="64e789d6-d11e-4647-86e6-f51bef5f058a"><g id="SvgjsG2536"><svg viewBox="0 0 395.52 139.22422963281693" height="139.22422963281693" width="395.52"><g><svg viewBox="0 0 631.3045919918483 222.2211151995471" height="139.22422963281693" width="395.52"><g><svg viewBox="0 0 395.52 222.2211151995471" height="222.2211151995471" width="395.52"><g id="SvgjsG2535"><svg viewBox="0 0 395.52 222.2211151995471" height="222.2211151995471" width="395.52" id="SvgjsSvg2534"><g><svg viewBox="0 0 395.52 222.2211151995471" height="222.2211151995471" width="395.52"><g transform="matrix(1,0,0,1,0,0)"><svg width="395.52" viewBox="4.08 -38.35 86.24 48.46" height="222.2211151995471" data-palette-color="url(#e1144a73-d275-428a-b459-1eb86ba9a73f)"></svg></g></svg></g></svg></g></svg></g><g transform="matrix(1,0,0,1,447.98107199184824,19.491649907073963)"><svg viewBox="0 0 183.32352 183.2378153853992" height="183.2378153853992" width="183.32352"><g><svg xmlns="http://www.w3.org/2000/svg" xmlns:xlink="http://www.w3.org/1999/xlink" version="1.1" x="0" y="0" viewBox="0.7607695154586737 0.7749999999999999 30.43923048454133 30.424999999999997" enable-background="new 0 0 32 32" xml:space="preserve" height="183.2378153853992" width="183.32352" class="icon-icon-0" data-fill-palette-color="accent" id="SvgjsSvg2533"><g fill="white"><g fill="white"><path fill="white" d="M1.5 31.2c-0.2 0-0.4-0.1-0.5-0.2-0.2-0.2-0.3-0.4-0.2-0.7l3.7-19.1c0.1-0.3 0.3-0.6 0.6-0.6l9.6-1.3c0.2 0 0.5 0 0.6 0.2l7.2 7.2c0.2 0.2 0.2 0.4 0.2 0.6l-1.3 9.6c0 0.3-0.3 0.6-0.6 0.6L1.6 31.2H1.5zM5.8 12.1L2.4 29.6l17.5-3.4 1.2-8.7-6.7-6.7L5.8 12.1z"></path></g><g fill="white"><rect x="5.2" y="19.8" transform="matrix(-0.7071 -0.7071 0.7071 -0.7071 -8.3465 48.7211)" fill="white" width="1.5" height="12.6"></rect></g><g fill="white"><path fill="white" d="M12 23.1c-0.8 0-1.6-0.3-2.2-0.9-0.6-0.6-0.9-1.3-0.9-2.2 0-0.8 0.3-1.6 0.9-2.2 1.2-1.2 3.2-1.2 4.3 0 1.2 1.2 1.2 3.1 0 4.3C13.6 22.8 12.8 23.1 12 23.1zM12 18.4c-0.4 0-0.8 0.2-1.1 0.5s-0.5 0.7-0.5 1.1 0.2 0.8 0.5 1.1c0.6 0.6 1.6 0.6 2.2 0 0.6-0.6 0.6-1.6 0-2.2C12.8 18.6 12.4 18.4 12 18.4z"></path></g><g fill="white"><path fill="white" d="M23.8 18.7c-0.9 0-1.8-0.4-2.4-1l-7.1-7.1c-1.3-1.3-1.3-3.5 0-4.8L19.1 1c0.3-0.3 0.8-0.3 1.1 0L31 11.8c0.1 0.1 0.2 0.3 0.2 0.5s-0.1 0.4-0.2 0.5l-4.9 4.9C25.5 18.4 24.7 18.7 23.8 18.7zM19.7 2.6l-4.3 4.3c-0.7 0.7-0.7 2 0 2.7l7.1 7.1c0.7 0.7 2 0.7 2.7 0l4.3-4.3L19.7 2.6z"></path></g></g></svg></g></svg></g></svg></g><defs><mask></mask></defs><mask><g id="SvgjsG2532"><svg viewBox="0 0 395.52 139.22422963281693" height="139.22422963281693" width="395.52"><g><svg viewBox="0 0 631.3045919918483 222.2211151995471" height="139.22422963281693" width="395.52"><g><svg viewBox="0 0 395.52 222.2211151995471" height="222.2211151995471" width="395.52"><g id="SvgjsG2531"><svg viewBox="0 0 395.52 222.2211151995471" height="222.2211151995471" width="395.52" id="SvgjsSvg2530"><g><svg viewBox="0 0 395.52 222.2211151995471" height="222.2211151995471" width="395.52"><g transform="matrix(1,0,0,1,0,0)"><svg width="395.52" viewBox="4.08 -38.35 86.24 48.46" height="222.2211151995471" data-palette-color="url(#e1144a73-d275-428a-b459-1eb86ba9a73f)"><path d="M8.52 0L4.08 0 4.08-37.6 8.52-38.09 8.52-18.68 8.37-13.48 20.43-26.42 25.46-26.42 25.46-25.85 14.62-14.43 26.25-0.61 26.25 0 21.48 0 11.47-12.3 8.52-9.77 8.52 0ZM35.72 0L31.27 0 31.27-26.42 35.72-26.42 35.72 0ZM33.49-32.47L33.49-32.47Q32-32.47 31.2-33.25 30.39-34.03 30.39-35.45L30.39-35.45Q30.39-36.82 31.2-37.59 32-38.35 33.49-38.35L33.49-38.35Q34.98-38.35 35.79-37.59 36.59-36.82 36.59-35.45L36.59-35.45Q36.59-34.03 35.79-33.25 34.98-32.47 33.49-32.47ZM66.11-26.42L51.51 10.11 47.7 9.13 51.61-1.07 40.62-26.42 45.26-26.42 53.8-5.93 61.84-26.42 66.11-26.42ZM77.95 0.49L77.95 0.49Q74.16 0.49 71.79-1.42 69.43-3.32 69.43-7.18L69.43-7.18Q69.43-8.94 70.05-10.3 70.67-11.67 71.94-12.61 73.21-13.55 75.21-14.04 77.21-14.53 79.95-14.53L79.95-14.53 85.91-14.53 85.91-17.58Q85.91-20.78 84.47-22.2 83.02-23.63 80.12-23.63L80.12-23.63Q78.24-23.63 75.88-23.03 73.53-22.44 71.65-21.14L71.65-21.14 70.35-24.51Q71.7-25.37 73.32-25.92 74.94-26.46 76.71-26.73 78.48-27 80.24-27L80.24-27Q83.22-27 85.49-26.05 87.76-25.1 89.04-22.95 90.32-20.8 90.32-17.21L90.32-17.21 90.32 0 86.61 0 86.3-3.25Q85.25-2 84-1.17 82.76-0.34 81.25 0.07 79.75 0.49 77.95 0.49ZM78.63-2.66L78.63-2.66Q80.97-2.66 82.83-3.64 84.68-4.61 85.91-6.18L85.91-6.18 85.91-11.72 80.75-11.72Q78.07-11.72 76.51-11.21 74.94-10.69 74.3-9.68 73.65-8.67 73.65-7.13L73.65-7.13Q73.65-4.64 75.1-3.65 76.56-2.66 78.63-2.66Z" opacity="1" transform="matrix(1,0,0,1,0,0)" fill="black" class="wordmark-text-0" id="SvgjsPath2529"></path></svg></g></svg></g></svg></g></svg></g><g transform="matrix(1,0,0,1,447.98107199184824,19.491649907073963)"><svg viewBox="0 0 183.32352 183.2378153853992" height="183.2378153853992" width="183.32352"><g><svg xmlns="http://www.w3.org/2000/svg" xmlns:xlink="http://www.w3.org/1999/xlink" version="1.1" x="0" y="0" viewBox="0.7607695154586737 0.7749999999999999 30.43923048454133 30.424999999999997" enable-background="new 0 0 32 32" xml:space="preserve" height="183.2378153853992" width="183.32352" class="icon-icon-0" data-fill-palette-color="accent" id="SvgjsSvg2528"><g fill="black"><g fill="black"><path fill="black" d="M1.5 31.2c-0.2 0-0.4-0.1-0.5-0.2-0.2-0.2-0.3-0.4-0.2-0.7l3.7-19.1c0.1-0.3 0.3-0.6 0.6-0.6l9.6-1.3c0.2 0 0.5 0 0.6 0.2l7.2 7.2c0.2 0.2 0.2 0.4 0.2 0.6l-1.3 9.6c0 0.3-0.3 0.6-0.6 0.6L1.6 31.2H1.5zM5.8 12.1L2.4 29.6l17.5-3.4 1.2-8.7-6.7-6.7L5.8 12.1z"></path></g><g fill="black"><rect x="5.2" y="19.8" transform="matrix(-0.7071 -0.7071 0.7071 -0.7071 -8.3465 48.7211)" fill="black" width="1.5" height="12.6"></rect></g><g fill="black"><path fill="black" d="M12 23.1c-0.8 0-1.6-0.3-2.2-0.9-0.6-0.6-0.9-1.3-0.9-2.2 0-0.8 0.3-1.6 0.9-2.2 1.2-1.2 3.2-1.2 4.3 0 1.2 1.2 1.2 3.1 0 4.3C13.6 22.8 12.8 23.1 12 23.1zM12 18.4c-0.4 0-0.8 0.2-1.1 0.5s-0.5 0.7-0.5 1.1 0.2 0.8 0.5 1.1c0.6 0.6 1.6 0.6 2.2 0 0.6-0.6 0.6-1.6 0-2.2C12.8 18.6 12.4 18.4 12 18.4z"></path></g><g fill="black"><path fill="black" d="M23.8 18.7c-0.9 0-1.8-0.4-2.4-1l-7.1-7.1c-1.3-1.3-1.3-3.5 0-4.8L19.1 1c0.3-0.3 0.8-0.3 1.1 0L31 11.8c0.1 0.1 0.2 0.3 0.2 0.5s-0.1 0.4-0.2 0.5l-4.9 4.9C25.5 18.4 24.7 18.7 23.8 18.7zM19.7 2.6l-4.3 4.3c-0.7 0.7-0.7 2 0 2.7l7.1 7.1c0.7 0.7 2 0.7 2.7 0l4.3-4.3L19.7 2.6z"></path></g></g></svg></g></svg></g></svg></g><defs><mask></mask></defs></svg><rect width="395.52" height="139.22422963281693" fill="black" stroke="none" visibility="hidden"></rect></g></mask></svg><rect width="395.52" height="139.22422963281693" fill="black" stroke="none" visibility="hidden"></rect></g></mask><linearGradient x1="0" x2="1" y1="0.578" y2="0.595" id="fdeb7659-b36c-44df-b57b-959918fee6ff"><stop stop-color="#6ee2f5" offset="0"></stop><stop stop-color="#6454f0" offset="1"></stop></linearGradient><rect width="395.52" height="139.22422963281693" fill="url(#fdeb7659-b36c-44df-b57b-959918fee6ff)" mask="url(#64e789d6-d11e-4647-86e6-f51bef5f058a)" data-fill-palette-color="accent"></rect></svg><rect width="395.52" height="139.22422963281693" fill="none" stroke="none" visibility="hidden"></rect></g></svg></g></svg>