<?xml version="1.0" standalone="no"?>
<svg xmlns:xlink="http://www.w3.org/1999/xlink" id="wave" style="transform:rotate(0deg); transition: 0.3s" viewBox="0 0 1440 490" version="1.1" xmlns="http://www.w3.org/2000/svg"><defs><linearGradient id="sw-gradient-0" x1="0" x2="0" y1="1" y2="0"><stop stop-color="rgba(25.365, 23.028, 22.277, 1)" offset="0%"/><stop stop-color="rgba(0, 0, 0, 1)" offset="100%"/></linearGradient></defs><path style="transform:translate(0, 0px); opacity:1" fill="url(#sw-gradient-0)" d="M0,196L48,163.3C96,131,192,65,288,81.7C384,98,480,196,576,269.5C672,343,768,392,864,383.8C960,376,1056,310,1152,269.5C1248,229,1344,212,1440,187.8C1536,163,1632,131,1728,106.2C1824,82,1920,65,2016,81.7C2112,98,2208,147,2304,187.8C2400,229,2496,261,2592,302.2C2688,343,2784,392,2880,375.7C2976,359,3072,278,3168,212.3C3264,147,3360,98,3456,130.7C3552,163,3648,278,3744,285.8C3840,294,3936,196,4032,138.8C4128,82,4224,65,4320,106.2C4416,147,4512,245,4608,294C4704,343,4800,343,4896,318.5C4992,294,5088,245,5184,204.2C5280,163,5376,131,5472,155.2C5568,180,5664,261,5760,318.5C5856,376,5952,408,6048,351.2C6144,294,6240,147,6336,106.2C6432,65,6528,131,6624,147C6720,163,6816,131,6864,114.3L6912,98L6912,490L6864,490C6816,490,6720,490,6624,490C6528,490,6432,490,6336,490C6240,490,6144,490,6048,490C5952,490,5856,490,5760,490C5664,490,5568,490,5472,490C5376,490,5280,490,5184,490C5088,490,4992,490,4896,490C4800,490,4704,490,4608,490C4512,490,4416,490,4320,490C4224,490,4128,490,4032,490C3936,490,3840,490,3744,490C3648,490,3552,490,3456,490C3360,490,3264,490,3168,490C3072,490,2976,490,2880,490C2784,490,2688,490,2592,490C2496,490,2400,490,2304,490C2208,490,2112,490,2016,490C1920,490,1824,490,1728,490C1632,490,1536,490,1440,490C1344,490,1248,490,1152,490C1056,490,960,490,864,490C768,490,672,490,576,490C480,490,384,490,288,490C192,490,96,490,48,490L0,490Z"/></svg>