<?xml version="1.0" standalone="no"?>
<svg xmlns:xlink="http://www.w3.org/1999/xlink" id="wave" style="transform:rotate(0deg); transition: 0.3s" viewBox="0 0 1440 490" version="1.1" xmlns="http://www.w3.org/2000/svg"><defs><linearGradient id="sw-gradient-0" x1="0" x2="0" y1="1" y2="0"><stop stop-color="rgba(25.365, 23.028, 22.277, 1)" offset="0%"/><stop stop-color="rgba(0, 0, 0, 1)" offset="100%"/></linearGradient></defs><path style="transform:translate(0, 0px); opacity:1" fill="url(#sw-gradient-0)" d="M0,98L48,81.7C96,65,192,33,288,89.8C384,147,480,294,576,343C672,392,768,343,864,343C960,343,1056,392,1152,416.5C1248,441,1344,441,1440,408.3C1536,376,1632,310,1728,302.2C1824,294,1920,343,2016,302.2C2112,261,2208,131,2304,138.8C2400,147,2496,294,2592,359.3C2688,425,2784,408,2880,334.8C2976,261,3072,131,3168,114.3C3264,98,3360,196,3456,236.8C3552,278,3648,261,3744,228.7C3840,196,3936,147,4032,130.7C4128,114,4224,131,4320,130.7C4416,131,4512,114,4608,155.2C4704,196,4800,294,4896,334.8C4992,376,5088,359,5184,343C5280,327,5376,310,5472,285.8C5568,261,5664,229,5760,245C5856,261,5952,327,6048,310.3C6144,294,6240,196,6336,179.7C6432,163,6528,229,6624,277.7C6720,327,6816,359,6864,375.7L6912,392L6912,490L6864,490C6816,490,6720,490,6624,490C6528,490,6432,490,6336,490C6240,490,6144,490,6048,490C5952,490,5856,490,5760,490C5664,490,5568,490,5472,490C5376,490,5280,490,5184,490C5088,490,4992,490,4896,490C4800,490,4704,490,4608,490C4512,490,4416,490,4320,490C4224,490,4128,490,4032,490C3936,490,3840,490,3744,490C3648,490,3552,490,3456,490C3360,490,3264,490,3168,490C3072,490,2976,490,2880,490C2784,490,2688,490,2592,490C2496,490,2400,490,2304,490C2208,490,2112,490,2016,490C1920,490,1824,490,1728,490C1632,490,1536,490,1440,490C1344,490,1248,490,1152,490C1056,490,960,490,864,490C768,490,672,490,576,490C480,490,384,490,288,490C192,490,96,490,48,490L0,490Z"/></svg>